<svg width="812" height="194" viewBox="0 0 812 194" fill="none" xmlns="http://www.w3.org/2000/svg">
<path d="M129.334 52.496C114.454 52.496 107.014 66.848 107.014 95.552V106.928C107.014 120.56 108.982 131.264 112.918 139.04C116.854 146.72 122.662 150.56 130.342 150.56C140.902 150.56 150.598 140.288 159.43 119.744H162.022L161.014 151.856H159.43C158.854 150.8 158.326 150.08 157.846 149.696C157.366 149.216 156.646 148.976 155.686 148.976C154.822 148.976 151.366 149.744 145.318 151.28C139.27 152.72 133.126 153.44 126.886 153.44C111.238 153.44 99.0944 149.216 90.4544 140.768C81.9104 132.32 77.6384 119.648 77.6384 102.752C77.6384 85.76 82.1024 72.656 91.0304 63.44C100.054 54.224 112.15 49.616 127.318 49.616C133.174 49.616 138.886 50.384 144.454 51.92C150.118 53.36 153.43 54.08 154.39 54.08C155.35 54.08 156.07 53.888 156.55 53.504C157.03 53.024 157.558 52.256 158.134 51.2H159.718L160.87 82.448H158.278C153.958 72.752 149.494 65.36 144.886 60.272C140.374 55.088 135.19 52.496 129.334 52.496ZM238.941 107.504V96.848C238.941 79.28 238.077 68.192 236.349 63.584C234.429 58.304 231.693 55.04 228.141 53.792C226.125 53.024 223.677 52.64 220.797 52.64C217.917 52.64 215.421 53.024 213.309 53.792C211.293 54.56 209.613 55.904 208.269 57.824C206.925 59.744 205.821 61.76 204.957 63.872C204.189 65.984 203.565 68.96 203.085 72.8C202.509 78.368 202.221 86.576 202.221 97.424V107.792C202.221 119.504 202.653 127.856 203.517 132.848C204.477 137.744 205.629 141.248 206.973 143.36C209.949 148.064 214.557 150.416 220.797 150.416C228.381 150.416 233.277 147.248 235.485 140.912C237.789 134.48 238.941 123.344 238.941 107.504ZM220.509 153.44C204.477 153.44 192.477 149.12 184.509 140.48C176.637 131.744 172.701 119.168 172.701 102.752C172.701 86.24 176.925 73.28 185.373 63.872C193.917 54.368 205.965 49.616 221.517 49.616C237.069 49.616 248.781 54.128 256.653 63.152C264.621 72.08 268.605 84.8 268.605 101.312C268.605 117.824 264.573 130.64 256.509 139.76C248.541 148.88 236.541 153.44 220.509 153.44ZM359.476 53.936V152H339.316L289.924 58.832V149.264H297.844V152H278.116V149.264H286.036V53.936H278.116V51.2H317.86L355.588 123.488V53.936H347.668V51.2H367.396V53.936H359.476ZM462.568 51.2L464.008 87.344H461.272C457.048 74.576 453.304 65.888 450.04 61.28C446.776 56.576 442.072 54.224 435.928 54.224H434.2V148.976H446.44V152H393.88V148.976H406.12V54.224H404.248C398.104 54.224 393.352 56.672 389.992 61.568C386.632 66.368 382.936 74.96 378.904 87.344H376.168L377.608 51.2H462.568ZM516.302 149.264L505.79 118.16H477.278L466.19 149.264H476.99V152H454.958V149.264H461.726L498.446 50.336H510.254L546.542 149.264H553.166V152H506.078V149.264H516.302ZM492.11 77.264L478.574 114.992H504.638L492.11 77.264ZM604.506 52.496C589.626 52.496 582.186 66.848 582.186 95.552V106.928C582.186 120.56 584.154 131.264 588.09 139.04C592.026 146.72 597.834 150.56 605.514 150.56C616.074 150.56 625.77 140.288 634.602 119.744H637.194L636.186 151.856H634.602C634.026 150.8 633.498 150.08 633.018 149.696C632.538 149.216 631.818 148.976 630.858 148.976C629.994 148.976 626.538 149.744 620.49 151.28C614.442 152.72 608.298 153.44 602.058 153.44C586.41 153.44 574.266 149.216 565.626 140.768C557.082 132.32 552.81 119.648 552.81 102.752C552.81 85.76 557.274 72.656 566.202 63.44C575.226 54.224 587.322 49.616 602.49 49.616C608.346 49.616 614.058 50.384 619.626 51.92C625.29 53.36 628.602 54.08 629.562 54.08C630.522 54.08 631.242 53.888 631.722 53.504C632.202 53.024 632.73 52.256 633.306 51.2H634.89L636.042 82.448H633.45C629.13 72.752 624.666 65.36 620.058 60.272C615.546 55.088 610.362 52.496 604.506 52.496ZM733.553 51.2L734.993 87.344H732.257C728.033 74.576 724.289 65.888 721.025 61.28C717.761 56.576 713.057 54.224 706.913 54.224H705.185V148.976H717.425V152H664.865V148.976H677.105V54.224H675.233C669.089 54.224 664.337 56.672 660.977 61.568C657.617 66.368 653.921 74.96 649.889 87.344H647.153L648.593 51.2H733.553Z" fill="black" fill-opacity="0.06"/>
</svg>
