<svg width="467" height="105" viewBox="0 0 467 105" fill="none" xmlns="http://www.w3.org/2000/svg">
<path d="M0.0240002 2.19999H44.952V4.93599H36.6V49.576H65.256V4.93599H56.76V2.19999H101.832V4.93599H93.336V100.264H101.832V103H56.76V100.264H65.256V53.32H36.6V100.264H44.952V103H0.0240002V100.264H8.52V4.93599H0.0240002V2.19999ZM107.883 2.19999H182.763L184.203 30.712H181.611C177.579 21.016 173.355 14.392 168.939 10.84C164.523 7.19199 158.043 5.368 149.499 5.368H144.459V49.864H149.355C153.867 49.864 157.659 48.184 160.731 44.824C163.803 41.368 165.963 36.76 167.211 31H169.371V73.624H166.923C165.195 66.424 162.843 61.288 159.867 58.216C156.987 55.144 153.003 53.608 147.915 53.608H144.459V99.832H149.931C158.763 99.832 166.251 97.192 172.395 91.912C178.635 86.632 182.907 79.864 185.211 71.608H188.091L186.939 103H107.883V99.832H116.379V5.368H107.883V2.19999ZM197.743 2.19999H249.583V5.368H234.319V99.832H239.503C247.663 99.832 254.143 97.336 258.943 92.344C263.839 87.352 268.783 79.672 273.775 69.304H276.799L274.063 103H197.743V99.832H206.239V5.368H197.743V2.19999ZM283.524 2.19999H335.364V5.368H320.1V99.832H325.284C333.444 99.832 339.924 97.336 344.724 92.344C349.62 87.352 354.564 79.672 359.556 69.304H362.58L359.844 103H283.524V99.832H292.02V5.368H283.524V2.19999ZM437.019 58.504V47.848C437.019 30.28 436.155 19.192 434.427 14.584C432.507 9.304 429.771 6.04 426.219 4.79199C424.203 4.02399 421.755 3.63999 418.875 3.63999C415.995 3.63999 413.499 4.02399 411.387 4.79199C409.371 5.56 407.691 6.904 406.347 8.82399C405.003 10.744 403.899 12.76 403.035 14.872C402.267 16.984 401.643 19.96 401.163 23.8C400.587 29.368 400.299 37.576 400.299 48.424V58.792C400.299 70.504 400.731 78.856 401.595 83.848C402.555 88.744 403.707 92.248 405.051 94.36C408.027 99.064 412.635 101.416 418.875 101.416C426.459 101.416 431.355 98.248 433.563 91.912C435.867 85.48 437.019 74.344 437.019 58.504ZM418.587 104.44C402.555 104.44 390.555 100.12 382.587 91.48C374.715 82.744 370.779 70.168 370.779 53.752C370.779 37.24 375.003 24.28 383.451 14.872C391.995 5.368 404.043 0.615996 419.595 0.615996C435.147 0.615996 446.859 5.128 454.731 14.152C462.699 23.08 466.683 35.8 466.683 52.312C466.683 68.824 462.651 81.64 454.587 90.76C446.619 99.88 434.619 104.44 418.587 104.44Z" fill="black" fill-opacity="0.08"/>
</svg>
